HIERARCHY
ROOT Hips
{
	OFFSET 0.00 0.00 0.00
	CHANNELS 6 Xposition Yposition Zposition Xrotation Yrotation Zrotation
	JOINT Spine
	{
		OFFSET 0.00000 1.15266 1.72900
		CHANNELS 3 Xrotation Yrotation Zrotation
		JOINT Spine1
		{
			OFFSET 0.00000 0.40032 2.27031
			CHANNELS 3 Xrotation Yrotation Zrotation
			JOINT Spine2
			{
				OFFSET 0.00000 0.20092 2.29656
				CHANNELS 3 Xrotation Yrotation Zrotation
				JOINT Spine3
				{
					OFFSET 0.00000 0.00000 2.30533
					CHANNELS 3 Xrotation Yrotation Zrotation
					JOINT Neck
					{
						OFFSET 0.00000 -0.86449 6.05149
						CHANNELS 3 Xrotation Yrotation Zrotation
						JOINT Head
						{
							OFFSET 0.00000 -0.55043 3.12167
							CHANNELS 3 Xrotation Yrotation Zrotation
							End Site
							{
								OFFSET 0.00000 0.00000 3.73175
							}
						}
					}
					JOINT RightShoulder
					{
						OFFSET -0.78828 -1.31380 4.25672
						CHANNELS 3 Xrotation Yrotation Zrotation
						JOINT RightArm
						{
							OFFSET -3.91513 0.00000 0.00000
							CHANNELS 3 Xrotation Yrotation Zrotation
							JOINT RightForeArm
							{
								OFFSET -6.91491 0.00000 0.00000
								CHANNELS 3 Xrotation Yrotation Zrotation
								JOINT RightHand
								{
									OFFSET -6.09622 0.00000 0.00000
									CHANNELS 3 Xrotation Yrotation Zrotation
									JOINT RightHandEnd
									{
										OFFSET -1.74995 0.00000 0.00000
										CHANNELS 3 Xrotation Yrotation Zrotation
										End Site
										{
											OFFSET -1.74995 0.00000 0.00000
										}
									}
									JOINT RightHandThumb1
									{
										OFFSET -0.69998 -1.16663 -0.46665
										CHANNELS 3 Yrotation Xrotation Zrotation
										End Site
										{
											OFFSET -1.69032 -0.45292 0.00000
										}
									}
								}
							}
						}
					}
					JOINT LeftShoulder
					{
						OFFSET 0.78828 -1.31380 4.25672
						CHANNELS 3 Xrotation Yrotation Zrotation
						JOINT LeftArm
						{
							OFFSET 3.91513 0.00000 0.00000
							CHANNELS 3 Xrotation Yrotation Zrotation
							JOINT LeftForeArm
							{
								OFFSET 6.91491 0.00000 0.00000
								CHANNELS 3 Xrotation Yrotation Zrotation
								JOINT LeftHand
								{
									OFFSET 6.09622 0.00000 0.00000
									CHANNELS 3 Xrotation Yrotation Zrotation
									JOINT LeftHandEnd
									{
										OFFSET 1.74995 0.00000 0.00000
										CHANNELS 3 Xrotation Yrotation Zrotation
										End Site
										{
											OFFSET 1.74995 0.00000 0.00000
										}
									}
									JOINT LeftHandThumb1
									{
										OFFSET 0.69998 -1.16663 -0.46665
										CHANNELS 3 Yrotation Xrotation Zrotation
										End Site
										{
											OFFSET 1.69032 -0.45292 0.00000
										}
									}
								}
							}
						}
					}
				}
			}
		}
	}
	JOINT RightUpLeg
	{
		OFFSET -2.33857 0.00000 -0.68318
		CHANNELS 3 Xrotation Yrotation Zrotation
		JOINT RightLeg
		{
			OFFSET 0.00000 0.00000 -10.74496
			CHANNELS 3 Xrotation Yrotation Zrotation
			JOINT RightFoot
			{
				OFFSET 0.00000 0.00000 -10.93085
				CHANNELS 3 Xrotation Yrotation Zrotation
				JOINT RightToeBase
				{
					OFFSET 0.00000 -4.08727 -1.48765
					CHANNELS 3 Xrotation Yrotation Zrotation
					End Site
					{
						OFFSET 0.00000 -1.89187 -0.00000
					}
				}
			}
		}
	}
	JOINT LeftUpLeg
	{
		OFFSET 2.33857 0.00000 -0.68318
		CHANNELS 3 Xrotation Yrotation Zrotation
		JOINT LeftLeg
		{
			OFFSET 0.00000 0.00000 -10.74496
			CHANNELS 3 Xrotation Yrotation Zrotation
			JOINT LeftFoot
			{
				OFFSET 0.00000 0.00000 -10.93085
				CHANNELS 3 Xrotation Yrotation Zrotation
				JOINT LeftToeBase
				{
					OFFSET 0.00000 -4.08727 -1.48765
					CHANNELS 3 Xrotation Yrotation Zrotation
					End Site
					{
						OFFSET 0.00000 -1.89187 -0.00000
					}
				}
			}
		}
	}
}
MOTION
Frames: 12
Frame Time: 0.008342
 0.4300 -3.3288 25.0286 -6.1476 0.7985 167.4070 2.1922 -3.6331 0.1326 0.7904 -0.9706 0.0408 -3.1143 4.8533 2.6712 -1.7359 2.2378 -1.8938 4.7639 5.4703 -12.2571 -1.2340 -2.0427 -16.9248 -15.9389 5.2889 -2.9262 2.7705 6.9201 5.7334 0.0000 0.0000 11.3335 3.4823 -4.3009 -9.8759 -0.0000 -0.0000 -0.0000 -0.0000 -0.0000 -0.0000 -15.4444 0.0562 10.1849 -4.9617 -2.8631 -19.1253 -0.0000 0.0000 7.3664 6.5296 8.8125 7.9136 0.0000 -0.0000 0.0000 0.0000 0.0000 0.0000 -6.7407 -2.4103 -2.4773 2.9261 0.0000 0.0000 -2.8021 1.3879 10.9471 1.8045 0.0000 0.0000 -5.7092 -5.8818 3.1185 4.4138 0.0000 0.0000 -5.6633 7.5973 -17.8192 -6.2553 0.0000 -0.0000
 0.4298 -3.3281 25.0285 -6.1505 0.7985 167.3869 2.1927 -3.6343 0.1301 0.7916 -0.9740 0.0421 -3.1197 4.8571 2.6721 -1.7373 2.2388 -1.8938 4.7743 5.4826 -12.2640 -1.2025 -2.0387 -16.9111 -15.9387 5.2636 -2.9344 2.7514 6.9217 5.7643 0.0000 0.0000 11.3391 3.4661 -4.2733 -9.8660 0.0000 0.0000 -0.0000 0.0000 -0.0000 -0.0000 -15.4740 0.0706 10.1982 -4.9455 -2.8530 -19.1254 -0.0000 0.0000 7.3652 6.5013 8.7861 7.9103 0.0000 0.0000 -0.0000 0.0000 0.0000 0.0000 -6.7462 -2.4096 -2.4741 2.9364 0.0000 0.0000 -2.8097 1.3734 10.9675 1.8124 0.0000 0.0000 -5.7038 -5.8830 3.1197 4.4104 0.0000 0.0000 -5.6715 7.5988 -17.7995 -6.2574 0.0000 -0.0000
 0.4294 -3.3272 25.0283 -6.1550 0.8004 167.3557 2.1933 -3.6365 0.1313 0.7938 -0.9780 0.0414 -3.1274 4.8639 2.6771 -1.7394 2.2407 -1.8940 4.7881 5.4996 -12.2736 -1.1602 -2.0356 -16.8929 -15.9371 5.2289 -2.9444 2.7303 6.9267 5.8017 0.0000 0.0000 11.3467 3.4461 -4.2387 -9.8550 0.0000 0.0000 -0.0000 -0.0000 -0.0000 0.0000 -15.5090 0.0946 10.2159 -4.9247 -2.8455 -19.1283 -0.0000 0.0000 7.3607 6.4657 8.7527 7.9035 -0.0000 0.0000 -0.0000 0.0000 -0.0000 0.0000 -6.7572 -2.4081 -2.4619 2.9531 0.0000 0.0000 -2.8208 1.3599 10.9892 1.8179 0.0000 0.0000 -5.6947 -5.8829 3.1262 4.4019 0.0000 0.0000 -5.6812 7.6004 -17.7733 -6.2603 0.0000 -0.0000
 0.4290 -3.3261 25.0281 -6.1599 0.8024 167.3186 2.1951 -3.6388 0.1309 0.7958 -0.9820 0.0420 -3.1346 4.8693 2.6839 -1.7423 2.2437 -1.8941 4.8025 5.5223 -12.2869 -1.1056 -2.0330 -16.8714 -15.9358 5.1926 -2.9596 2.7078 6.9286 5.8506 0.0000 0.0000 11.3533 3.4239 -4.1974 -9.8415 -0.0000 -0.0000 -0.0000 -0.0000 -0.0000 -0.0000 -15.5525 0.1225 10.2345 -4.8947 -2.8319 -19.1286 -0.0000 0.0000 7.3481 6.4260 8.7046 7.8952 -0.0000 -0.0000 0.0000 -0.0000 -0.0000 -0.0000 -6.7668 -2.4069 -2.4525 2.9664 0.0000 0.0000 -2.8314 1.3490 11.0183 1.8192 0.0000 0.0000 -5.6853 -5.8829 3.1342 4.3961 0.0000 0.0000 -5.6955 7.6019 -17.7425 -6.2636 0.0000 -0.0000
 0.4284 -3.3249 25.0278 -6.1690 0.8084 167.2712 2.1939 -3.6392 0.1347 0.7988 -0.9898 0.0405 -3.1426 4.8797 2.6966 -1.7459 2.2484 -1.8968 4.8180 5.5479 -12.3009 -1.0414 -2.0311 -16.8478 -15.9343 5.1502 -2.9749 2.6868 6.9314 5.9031 0.0000 0.0000 11.3599 3.3990 -4.1501 -9.8265 -0.0000 -0.0000 -0.0000 -0.0000 -0.0000 -0.0000 -15.5982 0.1572 10.2569 -4.8603 -2.8194 -19.1320 -0.0000 0.0000 7.3287 6.3830 8.6479 7.8836 -0.0000 0.0000 -0.0000 -0.0000 -0.0000 0.0000 -6.7849 -2.4038 -2.4338 2.9839 0.0000 0.0000 -2.8443 1.3423 11.0468 1.8155 0.0000 0.0000 -5.6774 -5.8802 3.1484 4.3879 0.0000 0.0000 -5.7112 7.6028 -17.7071 -6.2673 0.0000 -0.0000
 0.4278 -3.3233 25.0274 -6.1763 0.8110 167.2212 2.1971 -3.6449 0.1336 0.8015 -0.9958 0.0415 -3.1504 4.8895 2.7097 -1.7499 2.2551 -1.8957 4.8338 5.5759 -12.3192 -0.9690 -2.0307 -16.8220 -15.9306 5.1047 -2.9910 2.6675 6.9358 5.9544 0.0000 0.0000 11.3680 3.3728 -4.1016 -9.8111 0.0000 -0.0000 -0.0000 0.0000 -0.0000 -0.0000 -15.6445 0.1939 10.2788 -4.8203 -2.8026 -19.1373 -0.0000 0.0000 7.3020 6.3393 8.5795 7.8694 0.0000 -0.0000 -0.0000 0.0000 0.0000 0.0000 -6.7957 -2.4049 -2.4168 2.9924 0.0000 0.0000 -2.8527 1.3394 11.0775 1.8055 0.0000 0.0000 -5.6660 -5.8809 3.1662 4.3811 0.0000 0.0000 -5.7304 7.6049 -17.6730 -6.2719 0.0000 -0.0000
 0.4271 -3.3217 25.0269 -6.1847 0.8152 167.1656 2.2003 -3.6494 0.1359 0.8049 -1.0048 0.0414 -3.1574 4.9025 2.7272 -1.7546 2.2635 -1.8975 4.8480 5.6048 -12.3372 -0.8916 -2.0319 -16.7968 -15.9274 5.0604 -3.0072 2.6515 6.9376 6.0074 0.0000 0.0000 11.3738 3.3463 -4.0502 -9.7936 0.0000 0.0000 -0.0000 0.0000 -0.0000 -0.0000 -15.6880 0.2334 10.3006 -4.7773 -2.7863 -19.1433 -0.0000 0.0000 7.2658 6.2976 8.5045 7.8525 -0.0000 -0.0000 0.0000 -0.0000 -0.0000 0.0000 -6.8076 -2.4058 -2.3938 2.9982 0.0000 0.0000 -2.8600 1.3411 11.1064 1.7900 0.0000 0.0000 -5.6545 -5.8804 3.1878 4.3738 0.0000 0.0000 -5.7510 7.6066 -17.6369 -6.2770 0.0000 -0.0000
 0.4264 -3.3199 25.0265 -6.1948 0.8195 167.1088 2.2039 -3.6549 0.1377 0.8084 -1.0154 0.0410 -3.1631 4.9176 2.7476 -1.7596 2.2738 -1.8990 4.8596 5.6325 -12.3560 -0.8123 -2.0337 -16.7730 -15.9232 5.0187 -3.0232 2.6394 6.9375 6.0576 0.0000 0.0000 11.3775 3.3203 -3.9997 -9.7754 -0.0000 -0.0000 -0.0000 -0.0000 0.0000 0.0000 -15.7258 0.2737 10.3195 -4.7319 -2.7698 -19.1500 -0.0000 0.0000 7.2209 6.2586 8.4237 7.8337 -0.0000 0.0000 -0.0000 -0.0000 -0.0000 0.0000 -6.8189 -2.4081 -2.3674 2.9981 0.0000 0.0000 -2.8644 1.3457 11.1319 1.7699 0.0000 0.0000 -5.6449 -5.8804 3.2124 4.3676 0.0000 0.0000 -5.7723 7.6082 -17.6031 -6.2823 0.0000 -0.0000
 0.4257 -3.3182 25.0260 -6.2058 0.8229 167.0522 2.2085 -3.6622 0.1397 0.8118 -1.0263 0.0412 -3.1671 4.9336 2.7693 -1.7648 2.2852 -1.9006 4.8678 5.6589 -12.3751 -0.7348 -2.0367 -16.7515 -15.9183 4.9811 -3.0379 2.6316 6.9374 6.1019 0.0000 0.0000 11.3795 3.2938 -3.9526 -9.7565 0.0000 0.0000 0.0000 0.0000 0.0000 -0.0000 -15.7554 0.3134 10.3341 -4.6862 -2.7540 -19.1572 -0.0000 0.0000 7.1680 6.2248 8.3394 7.8134 0.0000 0.0000 0.0000 -0.0000 -0.0000 0.0000 -6.8277 -2.4125 -2.3376 2.9905 0.0000 0.0000 -2.8646 1.3513 11.1535 1.7472 0.0000 0.0000 -5.6367 -5.8817 3.2398 4.3627 0.0000 0.0000 -5.7938 7.6098 -17.5725 -6.2876 0.0000 -0.0000
 0.4249 -3.3171 25.0255 -6.2337 0.8286 166.9986 2.1990 -3.6676 0.1429 0.8153 -1.0475 0.0375 -3.1705 4.9588 2.7975 -1.7698 2.2967 -1.9051 4.8708 5.6805 -12.3934 -0.6634 -2.0402 -16.7335 -15.9135 4.9459 -3.0522 2.6274 6.9389 6.1405 0.0000 0.0000 11.3791 3.2679 -3.9102 -9.7368 0.0000 -0.0000 -0.0000 0.0000 -0.0000 -0.0000 -15.7769 0.3520 10.3419 -4.6395 -2.7422 -19.1626 -0.0000 0.0000 7.1079 6.1970 8.2541 7.7920 -0.0000 -0.0000 -0.0000 0.0000 -0.0000 -0.0000 -6.8559 -2.4191 -2.3042 2.9822 0.0000 0.0000 -2.8616 1.3560 11.1693 1.7240 0.0000 0.0000 -5.6528 -5.8851 3.2704 4.3657 0.0000 0.0000 -5.8154 7.6117 -17.5489 -6.2929 0.0000 -0.0000
 0.4243 -3.3153 25.0251 -6.2438 0.8291 166.9500 2.2087 -3.6801 0.1428 0.8169 -1.0504 0.0407 -3.1691 4.9696 2.8137 -1.7758 2.3096 -1.9038 4.8704 5.7002 -12.4097 -0.5988 -2.0440 -16.7202 -15.9072 4.9226 -3.0616 2.6263 6.9362 6.1691 0.0000 0.0000 11.3767 3.2433 -3.8733 -9.7161 -0.0000 0.0000 -0.0000 0.0000 -0.0000 0.0000 -15.7835 0.3887 10.3438 -4.5970 -2.7325 -19.1678 -0.0000 0.0000 7.0439 6.1733 8.1707 7.7711 0.0000 0.0000 -0.0000 0.0000 -0.0000 0.0000 -6.8557 -2.4266 -2.2683 2.9603 0.0000 0.0000 -2.8544 1.3565 11.1790 1.7027 0.0000 0.0000 -5.6454 -5.8887 3.2988 4.3614 0.0000 0.0000 -5.8338 7.6135 -17.5282 -6.2981 0.0000 -0.0000
 0.4237 -3.3135 25.0248 -6.2555 0.8273 166.9068 2.2187 -3.6920 0.1457 0.8201 -1.0592 0.0408 -3.1685 4.9845 2.8323 -1.7809 2.3224 -1.9070 4.8649 5.7143 -12.4235 -0.5447 -2.0466 -16.7110 -15.9004 4.9065 -3.0681 2.6274 6.9324 6.1903 0.0000 0.0000 11.3725 3.2199 -3.8413 -9.6955 0.0000 -0.0000 -0.0000 -0.0000 -0.0000 0.0000 -15.7786 0.4205 10.3372 -4.5563 -2.7266 -19.1683 -0.0000 0.0000 6.9764 6.1539 8.0908 7.7496 0.0000 0.0000 0.0000 0.0000 0.0000 -0.0000 -6.8535 -2.4368 -2.2306 2.9323 0.0000 0.0000 -2.8431 1.3511 11.1838 1.6855 0.0000 0.0000 -5.6419 -5.8953 3.3244 4.3594 0.0000 0.0000 -5.8512 7.6156 -17.5107 -6.3030 0.0000 -0.0000
